<mxfile host="Electron" modified="2024-05-15T10:10:33.819Z" agent="Mozilla/5.0 (Windows NT 10.0; Win64; x64) AppleWebKit/537.36 (KHTML, like Gecko) draw.io/24.2.5 Chrome/120.0.6099.109 Electron/28.1.0 Safari/537.36" etag="6QgirlfDNEdPzjwxzwVD" version="24.2.5" type="device">
  <diagram name="PÃ¡gina-1" id="9YKTx066DdI-eFcbbqfd">
    <mxGraphModel dx="989" dy="577" grid="1" gridSize="10" guides="1" tooltips="1" connect="1" arrows="1" fold="1" page="1" pageScale="1" pageWidth="827" pageHeight="1169" math="0" shadow="0">
      <root>
        <mxCell id="0" />
        <mxCell id="1" parent="0" />
        <mxCell id="i1tq-NwWCPyj2_Uh6o02-1" value="" style="rounded=0;whiteSpace=wrap;html=1;" vertex="1" parent="1">
          <mxGeometry x="1022" y="641" width="40" height="60" as="geometry" />
        </mxCell>
        <mxCell id="i1tq-NwWCPyj2_Uh6o02-2" value="Q" style="text;html=1;align=center;verticalAlign=middle;whiteSpace=wrap;rounded=0;" vertex="1" parent="1">
          <mxGeometry x="1042" y="641" width="20" height="30" as="geometry" />
        </mxCell>
        <mxCell id="i1tq-NwWCPyj2_Uh6o02-35" value="D" style="text;html=1;align=center;verticalAlign=middle;whiteSpace=wrap;rounded=0;" vertex="1" parent="1">
          <mxGeometry x="1022" y="641" width="20" height="30" as="geometry" />
        </mxCell>
        <mxCell id="i1tq-NwWCPyj2_Uh6o02-39" value="&lt;font style=&quot;font-size: 14px;&quot;&gt;-&lt;/font&gt;" style="ellipse;whiteSpace=wrap;html=1;aspect=fixed;" vertex="1" parent="1">
          <mxGeometry x="770" y="641" width="30" height="30" as="geometry" />
        </mxCell>
        <mxCell id="i1tq-NwWCPyj2_Uh6o02-40" value="" style="triangle;whiteSpace=wrap;html=1;" vertex="1" parent="1">
          <mxGeometry x="1022" y="676" width="10" height="10" as="geometry" />
        </mxCell>
        <mxCell id="i1tq-NwWCPyj2_Uh6o02-41" value="" style="endArrow=classic;html=1;rounded=0;exitX=0.5;exitY=0;exitDx=0;exitDy=0;" edge="1" parent="1" source="i1tq-NwWCPyj2_Uh6o02-42">
          <mxGeometry width="50" height="50" relative="1" as="geometry">
            <mxPoint x="980" y="680" as="sourcePoint" />
            <mxPoint x="1022" y="680.8" as="targetPoint" />
            <Array as="points">
              <mxPoint x="982" y="681" />
            </Array>
          </mxGeometry>
        </mxCell>
        <mxCell id="i1tq-NwWCPyj2_Uh6o02-42" value="clk@24MHz" style="text;html=1;align=center;verticalAlign=middle;whiteSpace=wrap;rounded=0;" vertex="1" parent="1">
          <mxGeometry x="932" y="686" width="100" height="16.5" as="geometry" />
        </mxCell>
        <mxCell id="i1tq-NwWCPyj2_Uh6o02-43" value="&lt;font style=&quot;font-size: 14px;&quot;&gt;+&lt;/font&gt;" style="ellipse;whiteSpace=wrap;html=1;aspect=fixed;" vertex="1" parent="1">
          <mxGeometry x="880" y="641" width="30" height="30" as="geometry" />
        </mxCell>
        <mxCell id="i1tq-NwWCPyj2_Uh6o02-44" value="" style="endArrow=classic;html=1;rounded=0;exitX=1;exitY=0.5;exitDx=0;exitDy=0;" edge="1" parent="1" source="i1tq-NwWCPyj2_Uh6o02-43">
          <mxGeometry width="50" height="50" relative="1" as="geometry">
            <mxPoint x="962" y="655.83" as="sourcePoint" />
            <mxPoint x="1022" y="655.83" as="targetPoint" />
          </mxGeometry>
        </mxCell>
        <mxCell id="i1tq-NwWCPyj2_Uh6o02-45" value="" style="rounded=0;whiteSpace=wrap;html=1;" vertex="1" parent="1">
          <mxGeometry x="1174" y="641" width="40" height="60" as="geometry" />
        </mxCell>
        <mxCell id="i1tq-NwWCPyj2_Uh6o02-46" value="Q" style="text;html=1;align=center;verticalAlign=middle;whiteSpace=wrap;rounded=0;" vertex="1" parent="1">
          <mxGeometry x="1194" y="641" width="20" height="30" as="geometry" />
        </mxCell>
        <mxCell id="i1tq-NwWCPyj2_Uh6o02-47" value="D" style="text;html=1;align=center;verticalAlign=middle;whiteSpace=wrap;rounded=0;" vertex="1" parent="1">
          <mxGeometry x="1174" y="641" width="20" height="30" as="geometry" />
        </mxCell>
        <mxCell id="i1tq-NwWCPyj2_Uh6o02-48" value="" style="triangle;whiteSpace=wrap;html=1;" vertex="1" parent="1">
          <mxGeometry x="1174" y="676" width="10" height="10" as="geometry" />
        </mxCell>
        <mxCell id="i1tq-NwWCPyj2_Uh6o02-50" value="clk@3.2MHz" style="text;html=1;align=center;verticalAlign=middle;whiteSpace=wrap;rounded=0;" vertex="1" parent="1">
          <mxGeometry x="1084" y="684.5" width="100" height="16.5" as="geometry" />
        </mxCell>
        <mxCell id="i1tq-NwWCPyj2_Uh6o02-51" value="" style="endArrow=classic;html=1;rounded=0;exitX=0.5;exitY=0;exitDx=0;exitDy=0;" edge="1" parent="1">
          <mxGeometry width="50" height="50" relative="1" as="geometry">
            <mxPoint x="1134" y="686" as="sourcePoint" />
            <mxPoint x="1174" y="680.8" as="targetPoint" />
            <Array as="points">
              <mxPoint x="1134" y="681" />
            </Array>
          </mxGeometry>
        </mxCell>
        <mxCell id="i1tq-NwWCPyj2_Uh6o02-53" value="" style="endArrow=classic;html=1;rounded=0;entryX=0.5;entryY=1;entryDx=0;entryDy=0;" edge="1" parent="1" target="i1tq-NwWCPyj2_Uh6o02-43">
          <mxGeometry width="50" height="50" relative="1" as="geometry">
            <mxPoint x="1084" y="656" as="sourcePoint" />
            <mxPoint x="1084" y="776" as="targetPoint" />
            <Array as="points">
              <mxPoint x="1084" y="740" />
              <mxPoint x="895" y="740" />
            </Array>
          </mxGeometry>
        </mxCell>
        <mxCell id="i1tq-NwWCPyj2_Uh6o02-54" value="" style="endArrow=classic;html=1;rounded=0;exitX=1;exitY=0.5;exitDx=0;exitDy=0;entryX=0;entryY=0.5;entryDx=0;entryDy=0;" edge="1" parent="1" source="i1tq-NwWCPyj2_Uh6o02-39" target="i1tq-NwWCPyj2_Uh6o02-43">
          <mxGeometry width="50" height="50" relative="1" as="geometry">
            <mxPoint x="920" y="630" as="sourcePoint" />
            <mxPoint x="970" y="580" as="targetPoint" />
          </mxGeometry>
        </mxCell>
        <mxCell id="i1tq-NwWCPyj2_Uh6o02-55" value="" style="endArrow=classic;html=1;rounded=0;exitX=1;exitY=0.5;exitDx=0;exitDy=0;entryX=0.5;entryY=1;entryDx=0;entryDy=0;" edge="1" parent="1" source="i1tq-NwWCPyj2_Uh6o02-46" target="i1tq-NwWCPyj2_Uh6o02-39">
          <mxGeometry width="50" height="50" relative="1" as="geometry">
            <mxPoint x="1214" y="660" as="sourcePoint" />
            <mxPoint x="1240" y="720" as="targetPoint" />
            <Array as="points">
              <mxPoint x="1240" y="656" />
              <mxPoint x="1240" y="760" />
              <mxPoint x="785" y="760" />
            </Array>
          </mxGeometry>
        </mxCell>
        <mxCell id="i1tq-NwWCPyj2_Uh6o02-56" value="" style="endArrow=classic;html=1;rounded=0;" edge="1" parent="1">
          <mxGeometry width="50" height="50" relative="1" as="geometry">
            <mxPoint x="710" y="655.76" as="sourcePoint" />
            <mxPoint x="770" y="655.76" as="targetPoint" />
          </mxGeometry>
        </mxCell>
        <mxCell id="i1tq-NwWCPyj2_Uh6o02-58" value="" style="rounded=0;whiteSpace=wrap;html=1;" vertex="1" parent="1">
          <mxGeometry x="1320" y="640.5" width="40" height="60" as="geometry" />
        </mxCell>
        <mxCell id="i1tq-NwWCPyj2_Uh6o02-59" value="Q" style="text;html=1;align=center;verticalAlign=middle;whiteSpace=wrap;rounded=0;" vertex="1" parent="1">
          <mxGeometry x="1340" y="640.5" width="20" height="30" as="geometry" />
        </mxCell>
        <mxCell id="i1tq-NwWCPyj2_Uh6o02-60" value="D" style="text;html=1;align=center;verticalAlign=middle;whiteSpace=wrap;rounded=0;" vertex="1" parent="1">
          <mxGeometry x="1320" y="640.5" width="20" height="30" as="geometry" />
        </mxCell>
        <mxCell id="i1tq-NwWCPyj2_Uh6o02-61" value="" style="triangle;whiteSpace=wrap;html=1;" vertex="1" parent="1">
          <mxGeometry x="1320" y="675.5" width="10" height="10" as="geometry" />
        </mxCell>
        <mxCell id="i1tq-NwWCPyj2_Uh6o02-62" value="clk@3.2MHz" style="text;html=1;align=center;verticalAlign=middle;whiteSpace=wrap;rounded=0;" vertex="1" parent="1">
          <mxGeometry x="1230" y="684" width="100" height="16.5" as="geometry" />
        </mxCell>
        <mxCell id="i1tq-NwWCPyj2_Uh6o02-63" value="" style="endArrow=classic;html=1;rounded=0;exitX=0.5;exitY=0;exitDx=0;exitDy=0;" edge="1" parent="1">
          <mxGeometry width="50" height="50" relative="1" as="geometry">
            <mxPoint x="1280" y="685.5" as="sourcePoint" />
            <mxPoint x="1320" y="680.3" as="targetPoint" />
            <Array as="points">
              <mxPoint x="1280" y="680.5" />
            </Array>
          </mxGeometry>
        </mxCell>
        <mxCell id="i1tq-NwWCPyj2_Uh6o02-64" value="" style="endArrow=classic;html=1;rounded=0;entryX=0;entryY=0.5;entryDx=0;entryDy=0;exitX=0.942;exitY=0.504;exitDx=0;exitDy=0;exitPerimeter=0;" edge="1" parent="1" source="i1tq-NwWCPyj2_Uh6o02-46" target="i1tq-NwWCPyj2_Uh6o02-60">
          <mxGeometry width="50" height="50" relative="1" as="geometry">
            <mxPoint x="1240" y="650" as="sourcePoint" />
            <mxPoint x="1290" y="600" as="targetPoint" />
          </mxGeometry>
        </mxCell>
        <mxCell id="i1tq-NwWCPyj2_Uh6o02-65" value="&lt;font style=&quot;font-size: 14px;&quot;&gt;-&lt;/font&gt;" style="ellipse;whiteSpace=wrap;html=1;aspect=fixed;" vertex="1" parent="1">
          <mxGeometry x="1420" y="640.5" width="30" height="30" as="geometry" />
        </mxCell>
        <mxCell id="i1tq-NwWCPyj2_Uh6o02-66" value="" style="endArrow=classic;html=1;rounded=0;exitX=1;exitY=0.5;exitDx=0;exitDy=0;" edge="1" parent="1" source="i1tq-NwWCPyj2_Uh6o02-59">
          <mxGeometry width="50" height="50" relative="1" as="geometry">
            <mxPoint x="1378" y="655.8" as="sourcePoint" />
            <mxPoint x="1420" y="655.8" as="targetPoint" />
          </mxGeometry>
        </mxCell>
        <mxCell id="i1tq-NwWCPyj2_Uh6o02-67" value="" style="endArrow=classic;html=1;rounded=0;entryX=0.5;entryY=1;entryDx=0;entryDy=0;" edge="1" parent="1" target="i1tq-NwWCPyj2_Uh6o02-65">
          <mxGeometry width="50" height="50" relative="1" as="geometry">
            <mxPoint x="1240" y="760" as="sourcePoint" />
            <mxPoint x="1290" y="630" as="targetPoint" />
            <Array as="points">
              <mxPoint x="1435" y="760" />
            </Array>
          </mxGeometry>
        </mxCell>
        <mxCell id="i1tq-NwWCPyj2_Uh6o02-68" value="" style="endArrow=classic;html=1;rounded=0;" edge="1" parent="1">
          <mxGeometry width="50" height="50" relative="1" as="geometry">
            <mxPoint x="1450" y="655.66" as="sourcePoint" />
            <mxPoint x="1500" y="655.66" as="targetPoint" />
          </mxGeometry>
        </mxCell>
        <mxCell id="i1tq-NwWCPyj2_Uh6o02-69" value="" style="endArrow=none;html=1;rounded=0;" edge="1" parent="1">
          <mxGeometry width="50" height="50" relative="1" as="geometry">
            <mxPoint x="730" y="660.5" as="sourcePoint" />
            <mxPoint x="740" y="650.5" as="targetPoint" />
          </mxGeometry>
        </mxCell>
        <mxCell id="i1tq-NwWCPyj2_Uh6o02-70" value="9" style="text;html=1;align=center;verticalAlign=middle;whiteSpace=wrap;rounded=0;" vertex="1" parent="1">
          <mxGeometry x="727" y="643" width="8" height="12" as="geometry" />
        </mxCell>
        <mxCell id="i1tq-NwWCPyj2_Uh6o02-71" value="" style="endArrow=none;html=1;rounded=0;" edge="1" parent="1">
          <mxGeometry width="50" height="50" relative="1" as="geometry">
            <mxPoint x="843" y="660.5" as="sourcePoint" />
            <mxPoint x="853" y="650.5" as="targetPoint" />
          </mxGeometry>
        </mxCell>
        <mxCell id="i1tq-NwWCPyj2_Uh6o02-72" value="9" style="text;html=1;align=center;verticalAlign=middle;whiteSpace=wrap;rounded=0;" vertex="1" parent="1">
          <mxGeometry x="840" y="643" width="8" height="12" as="geometry" />
        </mxCell>
        <mxCell id="i1tq-NwWCPyj2_Uh6o02-73" value="" style="endArrow=none;html=1;rounded=0;" edge="1" parent="1">
          <mxGeometry width="50" height="50" relative="1" as="geometry">
            <mxPoint x="780.5" y="726.5" as="sourcePoint" />
            <mxPoint x="790.5" y="716.5" as="targetPoint" />
          </mxGeometry>
        </mxCell>
        <mxCell id="i1tq-NwWCPyj2_Uh6o02-74" value="9" style="text;html=1;align=center;verticalAlign=middle;whiteSpace=wrap;rounded=0;" vertex="1" parent="1">
          <mxGeometry x="775.5" y="711" width="8" height="12" as="geometry" />
        </mxCell>
        <mxCell id="i1tq-NwWCPyj2_Uh6o02-75" value="" style="endArrow=none;html=1;rounded=0;" edge="1" parent="1">
          <mxGeometry width="50" height="50" relative="1" as="geometry">
            <mxPoint x="963" y="660.5" as="sourcePoint" />
            <mxPoint x="973" y="650.5" as="targetPoint" />
          </mxGeometry>
        </mxCell>
        <mxCell id="i1tq-NwWCPyj2_Uh6o02-76" value="12" style="text;html=1;align=center;verticalAlign=middle;whiteSpace=wrap;rounded=0;" vertex="1" parent="1">
          <mxGeometry x="950" y="643" width="20" height="12" as="geometry" />
        </mxCell>
        <mxCell id="i1tq-NwWCPyj2_Uh6o02-77" value="" style="endArrow=none;html=1;rounded=0;" edge="1" parent="1">
          <mxGeometry width="50" height="50" relative="1" as="geometry">
            <mxPoint x="940" y="744.5" as="sourcePoint" />
            <mxPoint x="950" y="734.5" as="targetPoint" />
          </mxGeometry>
        </mxCell>
        <mxCell id="i1tq-NwWCPyj2_Uh6o02-78" value="12" style="text;html=1;align=center;verticalAlign=middle;whiteSpace=wrap;rounded=0;" vertex="1" parent="1">
          <mxGeometry x="927" y="727" width="20" height="12" as="geometry" />
        </mxCell>
        <mxCell id="i1tq-NwWCPyj2_Uh6o02-79" value="&amp;gt;&amp;gt; 3" style="rounded=0;whiteSpace=wrap;html=1;" vertex="1" parent="1">
          <mxGeometry x="1100" y="640.5" width="40" height="30" as="geometry" />
        </mxCell>
        <mxCell id="i1tq-NwWCPyj2_Uh6o02-80" value="" style="endArrow=classic;html=1;rounded=0;exitX=1;exitY=0.5;exitDx=0;exitDy=0;entryX=0;entryY=0.5;entryDx=0;entryDy=0;" edge="1" parent="1" source="i1tq-NwWCPyj2_Uh6o02-2" target="i1tq-NwWCPyj2_Uh6o02-79">
          <mxGeometry width="50" height="50" relative="1" as="geometry">
            <mxPoint x="1050" y="650" as="sourcePoint" />
            <mxPoint x="1100" y="600" as="targetPoint" />
          </mxGeometry>
        </mxCell>
        <mxCell id="i1tq-NwWCPyj2_Uh6o02-81" value="" style="endArrow=classic;html=1;rounded=0;exitX=1;exitY=0.5;exitDx=0;exitDy=0;entryX=0;entryY=0.5;entryDx=0;entryDy=0;" edge="1" parent="1" target="i1tq-NwWCPyj2_Uh6o02-47">
          <mxGeometry width="50" height="50" relative="1" as="geometry">
            <mxPoint x="1140" y="655.8" as="sourcePoint" />
            <mxPoint x="1178" y="655.8" as="targetPoint" />
          </mxGeometry>
        </mxCell>
        <mxCell id="i1tq-NwWCPyj2_Uh6o02-84" value="" style="endArrow=none;html=1;rounded=0;" edge="1" parent="1">
          <mxGeometry width="50" height="50" relative="1" as="geometry">
            <mxPoint x="1153" y="660.5" as="sourcePoint" />
            <mxPoint x="1163" y="650.5" as="targetPoint" />
          </mxGeometry>
        </mxCell>
        <mxCell id="i1tq-NwWCPyj2_Uh6o02-85" value="9" style="text;html=1;align=center;verticalAlign=middle;whiteSpace=wrap;rounded=0;" vertex="1" parent="1">
          <mxGeometry x="1150" y="643" width="8" height="12" as="geometry" />
        </mxCell>
        <mxCell id="i1tq-NwWCPyj2_Uh6o02-86" value="" style="endArrow=none;html=1;rounded=0;" edge="1" parent="1">
          <mxGeometry width="50" height="50" relative="1" as="geometry">
            <mxPoint x="1271" y="660.5" as="sourcePoint" />
            <mxPoint x="1281" y="650.5" as="targetPoint" />
          </mxGeometry>
        </mxCell>
        <mxCell id="i1tq-NwWCPyj2_Uh6o02-87" value="9" style="text;html=1;align=center;verticalAlign=middle;whiteSpace=wrap;rounded=0;" vertex="1" parent="1">
          <mxGeometry x="1268" y="643" width="8" height="12" as="geometry" />
        </mxCell>
        <mxCell id="i1tq-NwWCPyj2_Uh6o02-88" value="" style="endArrow=none;html=1;rounded=0;" edge="1" parent="1">
          <mxGeometry width="50" height="50" relative="1" as="geometry">
            <mxPoint x="1379.5" y="660.5" as="sourcePoint" />
            <mxPoint x="1389.5" y="650.5" as="targetPoint" />
          </mxGeometry>
        </mxCell>
        <mxCell id="i1tq-NwWCPyj2_Uh6o02-89" value="9" style="text;html=1;align=center;verticalAlign=middle;whiteSpace=wrap;rounded=0;" vertex="1" parent="1">
          <mxGeometry x="1376.5" y="643" width="8" height="12" as="geometry" />
        </mxCell>
      </root>
    </mxGraphModel>
  </diagram>
</mxfile>
